<svg version="1.1" viewBox="0.0 0.0 170.0 214.0" fill="none" stroke="none" stroke-linecap="square" stroke-miterlimit="10" xmlns:xlink="http://www.w3.org/1999/xlink" xmlns="http://www.w3.org/2000/svg"><clipPath id="p.0"><path d="m0 0l170.0 0l0 214.0l-170.0 0l0 -214.0z" clip-rule="nonzero"/></clipPath><g clip-path="url(#p.0)"><path fill="#000000" fill-opacity="0.0" d="m0 0l170.0 0l0 214.0l-170.0 0z" fill-rule="evenodd"/><path fill="#000000" fill-opacity="0.0" d="m-0.002624672 -0.71912754l177.00787 0l0 215.84253l-177.00787 0z" fill-rule="evenodd"/><path fill="#ffffff" d="m44.99736 47.165245q-2.203125 0 -4.0 -0.859375q-1.796875 -0.859375 -3.078125 -2.53125q-1.28125 -1.6875 -1.984375 -4.171875q-0.703125 -2.484375 -0.703125 -5.71875q0 -3.25 0.703125 -5.6875q0.703125 -2.4375 1.984375 -4.09375q1.28125 -1.65625 3.078125 -2.46875q1.796875 -0.828125 4.0 -0.828125q2.203125 0 4.0 0.828125q1.796875 0.8125 3.078125 2.46875q1.28125 1.65625 1.984375 4.09375q0.703125 2.4375 0.703125 5.6875q0 3.234375 -0.703125 5.71875q-0.703125 2.484375 -1.984375 4.171875q-1.28125 1.671875 -3.078125 2.53125q-1.796875 0.859375 -4.0 0.859375zm0 -4.5625q0.953125 0 1.765625 -0.4375q0.828125 -0.4375 1.421875 -1.453125q0.609375 -1.03125 0.96875 -2.6875q0.359375 -1.65625 0.359375 -4.140625q0 -2.484375 -0.359375 -4.125q-0.359375 -1.640625 -0.96875 -2.609375q-0.59375 -0.984375 -1.421875 -1.375q-0.8125 -0.40625 -1.765625 -0.40625q-0.953125 0 -1.78125 0.40625q-0.8125 0.390625 -1.421875 1.375q-0.59375 0.96875 -0.953125 2.609375q-0.359375 1.640625 -0.359375 4.125q0 2.484375 0.359375 4.140625q0.359375 1.65625 0.953125 2.6875q0.609375 1.015625 1.421875 1.453125q0.828125 0.4375 1.78125 0.4375zm0 -5.765625q-1.28125 0 -2.140625 -0.8125q-0.859375 -0.828125 -0.859375 -2.21875q0 -1.40625 0.859375 -2.21875q0.859375 -0.828125 2.140625 -0.828125q1.28125 0 2.140625 0.828125q0.859375 0.8125 0.859375 2.21875q0 1.390625 -0.859375 2.21875q-0.859375 0.8125 -2.140625 0.8125zm71.999954 10.328125q-2.203125 0 -4.0 -0.859375q-1.796875 -0.859375 -3.078125 -2.53125q-1.28125 -1.6875 -1.984375 -4.171875q-0.703125 -2.484375 -0.703125 -5.71875q0 -3.25 0.703125 -5.6875q0.703125 -2.4375 1.984375 -4.09375q1.28125 -1.65625 3.078125 -2.46875q1.796875 -0.828125 4.0 -0.828125q2.203125 0 4.0 0.828125q1.796875 0.8125 3.078125 2.46875q1.28125 1.65625 1.984375 4.09375q0.703125 2.4375 0.703125 5.6875q0 3.234375 -0.703125 5.71875q-0.703125 2.484375 -1.984375 4.171875q-1.28125 1.671875 -3.078125 2.53125q-1.796875 0.859375 -4.0 0.859375zm0 -4.5625q0.953125 0 1.765625 -0.4375q0.828125 -0.4375 1.421875 -1.453125q0.609375 -1.03125 0.96875 -2.6875q0.359375 -1.65625 0.359375 -4.140625q0 -2.484375 -0.359375 -4.125q-0.359375 -1.640625 -0.96875 -2.609375q-0.59375 -0.984375 -1.421875 -1.375q-0.8125 -0.40625 -1.765625 -0.40625q-0.953125 0 -1.78125 0.40625q-0.8125 0.390625 -1.421875 1.375q-0.59375 0.96875 -0.953125 2.609375q-0.359375 1.640625 -0.359375 4.125q0 2.484375 0.359375 4.140625q0.359375 1.65625 0.953125 2.6875q0.609375 1.015625 1.421875 1.453125q0.828125 0.4375 1.78125 0.4375zm0 -5.765625q-1.28125 0 -2.140625 -0.8125q-0.859375 -0.828125 -0.859375 -2.21875q0 -1.40625 0.859375 -2.21875q0.859375 -0.828125 2.140625 -0.828125q1.28125 0 2.140625 0.828125q0.859375 0.8125 0.859375 2.21875q0 1.390625 -0.859375 2.21875q-0.859375 0.8125 -2.140625 0.8125z" fill-rule="nonzero"/><path fill="#ffffff" d="m60.316116 101.08712l-13.171875 -34.8125l4.921875 0l13.171875 34.8125l-4.921875 0zm10.281235 0.15625l0 -4.40625l19.1875 0l0 4.40625l-19.1875 0zm24.54686 -0.15625l13.171875 -34.8125l4.921875 0l-13.171875 34.8125l-4.921875 0z" fill-rule="nonzero"/><path fill="#ffffff" d="m59.878616 149.83711q-3.921875 -3.46875 -6.1875 -8.03125q-2.265625 -4.5625 -2.265625 -10.25q0 -5.6718674 2.265625 -10.234367q2.265625 -4.5625 6.1875 -8.046875l3.265625 2.609375q-3.546875 3.484375 -5.171875 7.21875q-1.625 3.734375 -1.625 8.453117q0 2.359375 0.390625 4.46875q0.40625 2.09375 1.21875 4.015625q0.828125 1.921875 2.109375 3.703125q1.28125 1.78125 3.078125 3.5l-3.265625 2.59375zm20.312485 -6.671875q-2.3125 0 -4.265625 -0.875q-1.9375 -0.890625 -3.3125 -2.609375q-1.375 -1.71875 -2.140625 -4.25q-0.765625 -2.546875 -0.765625 -5.90625q0 -3.2812424 0.765625 -5.7812424q0.765625 -2.5 2.140625 -4.203125q1.375 -1.703125 3.3125 -2.5625q1.953125 -0.859375 4.265625 -0.859375q2.3125 0 4.25 0.859375q1.953125 0.859375 3.328125 2.5625q1.375 1.703125 2.140625 4.203125q0.765625 2.5 0.765625 5.7812424q0 3.359375 -0.765625 5.90625q-0.765625 2.53125 -2.140625 4.25q-1.375 1.71875 -3.328125 2.609375q-1.9375 0.875 -4.25 0.875zm0 -5.078125q2.046875 0 3.234375 -2.15625q1.203125 -2.171875 1.203125 -6.40625q0 -4.0781174 -1.203125 -6.2031174q-1.1875 -2.125 -3.234375 -2.125q-2.046875 0 -3.25 2.125q-1.1875 2.125 -1.1875 6.2031174q0 4.234375 1.1875 6.40625q1.203125 2.15625 3.25 2.15625zm20.312485 11.75l-3.265625 -2.59375q1.796875 -1.71875 3.078125 -3.5q1.28125 -1.78125 2.09375 -3.703125q0.828125 -1.921875 1.21875 -4.015625q0.40625 -2.109375 0.40625 -4.46875q0 -4.7187424 -1.625 -8.453117q-1.625 -3.734375 -5.171875 -7.21875l3.265625 -2.609375q3.921875 3.484375 6.1875 8.046875q2.265625 4.5625 2.265625 10.234367q0 5.6875 -2.265625 10.25q-2.265625 4.5625 -6.1875 8.03125z" fill-rule="nonzero"/><path fill="#ffffff" d="m18.344315 197.08711l13.171875 -34.8125l4.921875 0l-13.171875 34.8125l-4.921875 0zm23.45311 0.15625l0 -4.40625l19.1875 0l0 4.40625l-19.1875 0zm37.718735 -0.15625l-13.171875 -34.8125l4.921875 0l13.171875 34.8125l-4.921875 0zm23.999985 0l-13.171875 -34.8125l4.921875 0l13.171875 34.8125l-4.921875 0zm10.82811 0l13.171875 -34.8125l4.921875 0l-13.171875 34.8125l-4.921875 0zm23.45311 0.15625l0 -4.40625l19.1875 0l0 4.40625l-19.1875 0z" fill-rule="nonzero"/></g></svg>